<?xml version="1.0" standalone="no"?><!DOCTYPE svg PUBLIC "-//W3C//DTD SVG 1.1//EN" "http://www.w3.org/Graphics/SVG/1.1/DTD/svg11.dtd"><svg t="1576574174367" class="icon" viewBox="0 0 1024 1024" version="1.1" xmlns="http://www.w3.org/2000/svg" p-id="4005" xmlns:xlink="http://www.w3.org/1999/xlink" width="200" height="200"><defs><style type="text/css"></style></defs><path d="M473.92 635.936a34.96 34.96 0 0 1-35-34.928v-1.384a34.96 34.96 0 0 1 35-34.928H512V473.024h-38.08a34.96 34.96 0 0 1-35-34.928v-1.384a34.96 34.96 0 0 1 35-34.928H512V245.104A542.52 542.52 0 0 1 336.136 52.664l-16.68-30.72-35.736 5.416C205.016 39.28 141.224 97.264 122 174.344L32.536 532.936c-16.048 64.32 32.696 126.568 99.104 126.568h96.432l0.648-7.504 31.16-362.48-31.056 362.48-16.36 190.744-13.824 161.296h313.368V635.936h-38.08z" fill="#FF5555" p-id="4006"></path><path d="M991.464 532.936l-89.456-358.592c-19.232-77.08-83.024-135.08-161.728-146.984l-35.728-5.416-16.688 30.72A542.504 542.504 0 0 1 512 245.096v156.68h38.08a34.96 34.96 0 0 1 35 34.936v1.376a34.96 34.96 0 0 1-35 34.936H512v91.664h38.08a34.96 34.96 0 0 1 35 34.936v1.376a34.96 34.96 0 0 1-35 34.928H512v368.104h313.368l-13.824-161.288-16.36-190.752-31.056-362.48L795.264 652l0.672 7.52h96.44c66.4-0.016 115.136-62.256 99.088-126.584z" fill="#FF5555" p-id="4007"></path><path d="M803.832 51.696l-42.288 77.84a548.32 548.32 0 0 1-88.864 120.52C628.864 295.08 572.992 326.576 512 341.888v-96.8A542.448 542.448 0 0 0 687.864 52.656l16.68-30.712 35.728 5.408a197.04 197.04 0 0 1 71.328 25.52l-7.768-1.176zM991.472 532.936l-18.08-72.456c-5.552 51.536-49.248 93.968-104.976 93.968l-81.528 0.016L795.92 659.52l96.44-0.008c66.408 0 115.16-62.256 99.12-126.576z" fill="#FFE8C2" p-id="4008"></path><path d="M795.184 652H643.832v72.688h157.584z" fill="#FFECA0" p-id="4009"></path><path d="M643.84 724.688v51.536c0 36.736 29.84 66.52 66.64 66.52h101.064l-10.128-118.056H643.84z" fill="#C59B6D" p-id="4010"></path><path d="M220.176 51.696l42.288 77.84a548.32 548.32 0 0 0 88.856 120.52C395.136 295.08 451.016 326.576 512 341.888v-96.8A542.432 542.432 0 0 1 336.136 52.656l-16.68-30.712-35.72 5.408a197.04 197.04 0 0 0-71.336 25.52l7.776-1.176z" fill="#FFD373" p-id="4011"></path><path d="M32.528 532.936l18.08-72.456c5.56 51.536 49.248 93.968 104.976 93.968h81.52L228.08 659.52H131.648c-66.416 0-115.16-62.256-99.12-126.576z" fill="#FFE8C2" p-id="4012"></path><path d="M228.816 652h151.36v72.688H222.576z" fill="#FFECA0" p-id="4013"></path><path d="M380.168 724.688v51.536c0 36.736-29.84 66.52-66.648 66.52H212.464l10.12-118.056h157.584zM550.08 473.024h-76.16a34.96 34.96 0 0 1-35-34.928v-1.384a34.96 34.96 0 0 1 35-34.928h76.16a34.96 34.96 0 0 1 35 34.928v1.384a34.968 34.968 0 0 1-35 34.928zM550.08 635.936h-76.16a34.96 34.96 0 0 1-35-34.928v-1.384a34.96 34.96 0 0 1 35-34.928h76.16a34.96 34.96 0 0 1 35 34.928v1.384a34.96 34.96 0 0 1-35 34.928z" fill="#C59B6D" p-id="4014"></path><path d="M689.68 935.968a20.904 20.904 0 0 1-7.656-1.536 20.304 20.304 0 0 1-6.48-4.312 19.688 19.688 0 0 1-4.32-6.48 18.776 18.776 0 0 1-1.536-7.632c0-1.296 0.112-2.616 0.376-3.912a20.24 20.24 0 0 1 8.52-12.696 20.304 20.304 0 0 1 7.2-2.976 19.736 19.736 0 0 1 11.536 1.144 19.752 19.752 0 0 1 8.984 7.36 20.24 20.24 0 0 1 2.984 7.168 19.624 19.624 0 0 1 0 7.808 20.128 20.128 0 0 1-8.504 12.696 20.224 20.224 0 0 1-11.104 3.376z" fill="#000000" p-id="4015"></path><path d="M1010.88 528.12l-18.08-72.464c-0.008-0.064-0.032-0.12-0.048-0.184l-71.336-285.952A216.184 216.184 0 0 0 777.6 15.704l-3.52-1.12a214.816 214.816 0 0 0-14.032-3.744l-0.88-0.208c-2.392-0.544-4.8-1.04-7.224-1.512l-1.2-0.224a221.12 221.12 0 0 0-7.472-1.28L707.544 2.208l-0.648-0.072a20 20 0 0 0-19.928 10.296l-16.688 30.712c-2.48 4.568-5.04 9.096-7.656 13.584-0.56 0.96-1.152 1.904-1.72 2.864-2.048 3.464-4.112 6.92-6.24 10.336-0.952 1.52-1.936 3-2.896 4.504-1.8 2.816-3.592 5.632-5.44 8.416-1.184 1.768-2.408 3.52-3.608 5.28-1.68 2.464-3.36 4.928-5.088 7.36-1.368 1.928-2.768 3.832-4.16 5.736-1.624 2.216-3.232 4.432-4.88 6.616-1.536 2.04-3.104 4.048-4.664 6.056-1.56 2.008-3.12 4.016-4.712 6a533.68 533.68 0 0 1-5.136 6.288c-1.512 1.832-3.024 3.656-4.56 5.464a539.416 539.416 0 0 1-37.92 40.176c-1.256 1.2-2.528 2.384-3.8 3.576-2.504 2.336-5.016 4.656-7.56 6.944-1.168 1.048-2.344 2.08-3.52 3.12-2.688 2.368-5.384 4.728-8.12 7.04-1.048 0.896-2.112 1.76-3.168 2.64-2.896 2.416-5.8 4.808-8.744 7.16-0.888 0.712-1.792 1.4-2.68 2.104-3.144 2.472-6.296 4.92-9.488 7.32-0.648 0.488-1.32 0.96-1.968 1.448-3.456 2.568-6.936 5.12-10.456 7.6l-0.088 0.064A524.56 524.56 0 0 1 353.728 43.136L337.04 12.424l-0.472-0.784-0.328-0.56A20.016 20.016 0 0 0 317.136 2.128c-0.224 0.024-0.456 0.04-0.68 0.08l-35.72 5.408a220.28 220.28 0 0 0-8.68 1.504c-2.424 0.464-4.832 0.96-7.224 1.504l-0.88 0.216c-1.992 0.456-3.976 0.96-5.952 1.472l-2.16 0.576c-1.984 0.536-3.96 1.104-5.92 1.696-1.176 0.36-2.336 0.736-3.504 1.12a216.2 216.2 0 0 0-143.84 153.824L13.128 528.112c-0.016 0.056 0.016-0.064 0 0A120.88 120.88 0 0 0 31.216 626.96c1.336 1.92 2.736 3.816 4.192 5.68a121.52 121.52 0 0 0 96.24 46.832h74.744l-27.68 322.864c0 0.008 0 0 0 0-0.48 5.568 1.4 11.088 5.192 15.2a20.016 20.016 0 0 0 14.728 6.464h626.736c5.6 0 10.944-2.344 14.736-6.464a19.936 19.936 0 0 0 5.192-15.2l-27.68-322.856s0 0.008 0 0h74.76c37.848 0 72.92-17.08 96.224-46.84a123.68 123.68 0 0 0 11.2-17.048 120.832 120.832 0 0 0 11.08-87.472zM744.736 48.4a184.72 184.72 0 0 1 10.648 2.416c0.672 0.176 1.36 0.344 2.024 0.528 1.248 0.336 2.48 0.704 3.712 1.064 2.048 0.608 4.08 1.24 6.104 1.92 0.216 0.08 0.432 0.136 0.64 0.216 3.272 1.112 6.504 2.32 9.696 3.616l-33.6 61.864A527.712 527.712 0 0 1 658.32 236.152c-34.88 35.84-78.176 62.88-126.328 79.08v-59.584A564.744 564.744 0 0 0 705.44 62.176l9.992-18.392 21.84 3.312c2.096 0.32 4.168 0.672 6.232 1.056l1.232 0.24zM550.08 421.744a15 15 0 0 1 15 14.968v1.376a15 15 0 0 1-15 14.976h-76.16a15 15 0 0 1-15-14.976v-1.376a15 15 0 0 1 15-14.968h76.16z m-293.96-367.2l0.704-0.232a177.6 177.6 0 0 1 6.032-1.896c1.248-0.368 2.48-0.736 3.736-1.072 0.672-0.184 1.352-0.352 2.024-0.528a176.2 176.2 0 0 1 10.64-2.416l1.248-0.24c2.064-0.392 4.136-0.752 6.216-1.064l21.84-3.312 9.992 18.4a564.736 564.736 0 0 0 173.44 193.464v59.592C443.84 299.032 400.56 272 365.672 236.152a527.848 527.848 0 0 1-85.624-116.128L246.432 58.16c3.2-1.304 6.424-2.512 9.688-3.624z m-46.4 585h-78.08a81.672 81.672 0 0 1-64.712-31.496c-1.96-2.496-3.76-5.088-5.4-7.76a81.256 81.256 0 0 1-9.576-62.528l3.28-13.152a125.48 125.48 0 0 0 100.352 49.808h59.736l-5.6 65.128zM492 896.04H334.32c-11.04 0-20 8.944-20 19.968a19.984 19.984 0 0 0 20 19.96H492v48.112H220.416l10.408-121.376H313.52c47.776 0 86.648-38.8 86.648-86.48V651.992a19.984 19.984 0 0 0-20-19.96H250.6l29.208-340.816a19.976 19.976 0 0 0-18.216-21.592 19.984 19.984 0 0 0-21.64 18.184l-21.2 246.68h-63.168c-42.696 0-78.512-31.08-84.656-72.824l70.472-282.496a176.368 176.368 0 0 1 69.904-101.92l33.576 61.8a567.704 567.704 0 0 0 92.096 124.92c42.4 43.56 95.744 75.52 155.024 93.104v24.752h-18.08c-30.32 0-55 24.624-55 54.888v1.376c0 26.488 18.888 48.648 43.928 53.776 3.584 0.736 7.28 1.12 11.072 1.12h18.08v51.744h-18.08a55.12 55.12 0 0 0-11.072 1.12c-25.04 5.128-43.92 27.288-43.92 53.776v1.376c0 30.272 24.664 54.896 54.992 54.896h18.08v240.144zM360.168 744.648v31.576c0 25.672-20.928 46.56-46.648 46.56H234.24l6.704-78.136H360.16z m-115.8-39.92l2.816-32.768H360.16v32.76H244.368zM473.92 615.968a15 15 0 0 1-15-14.976v-1.376c0-8.256 6.728-14.976 15-14.976h76.16c8.272 0 15 6.72 15 14.976v1.376a15 15 0 0 1-15 14.976h-76.16zM783.056 744.64l6.696 78.136h-79.264c-25.728 0-46.656-20.88-46.656-46.56v-31.576h119.224z m-119.224-39.92v-32.768h112.992l2.808 32.76H663.832z m120.216-416.912a19.984 19.984 0 0 0-21.632-18.184 19.968 19.968 0 0 0-18.216 21.584l29.208 340.816H643.84c-11.04 0-20 8.936-20 19.96v124.232c0 47.68 38.88 86.48 86.656 86.48h82.696l10.4 121.376H532.008v-48.112h86.16c11.048 0 20-8.936 20-19.96a19.984 19.984 0 0 0-20-19.96h-86.16V655.896h18.08c30.32 0 54.992-24.624 54.992-54.896v-1.376c0-26.48-18.88-48.648-43.92-53.776a55.128 55.128 0 0 0-11.08-1.12H532v-51.744h18.08a55.12 55.12 0 0 0 11.072-1.12c25.04-5.12 43.928-27.28 43.928-53.776v-1.376c0-30.264-24.672-54.888-55-54.888H532v-24.752c59.28-17.584 112.632-49.536 155.032-93.104a567.688 567.688 0 0 0 92.096-124.92l33.568-61.792a176.368 176.368 0 0 1 69.912 101.912l70.464 282.496c-6.144 41.744-41.952 72.824-84.656 72.824l-63.168 0.008-21.2-246.68z m180.128 309.528c-2.08 3.712-4.424 7.296-7.096 10.712a81.696 81.696 0 0 1-64.72 31.496h-78.08l-5.6-65.128 59.744-0.008c40.816 0 77.352-19.368 100.352-49.808l3.28 13.152a81.264 81.264 0 0 1-7.88 59.584z" fill="#000000" p-id="4016"></path></svg>