<?xml version="1.0" standalone="no"?><!DOCTYPE svg PUBLIC "-//W3C//DTD SVG 1.1//EN" "http://www.w3.org/Graphics/SVG/1.1/DTD/svg11.dtd"><svg t="1576574184034" class="icon" viewBox="0 0 1159 1024" version="1.1" xmlns="http://www.w3.org/2000/svg" p-id="4133" xmlns:xlink="http://www.w3.org/1999/xlink" width="226.3671875" height="200"><defs><style type="text/css"></style></defs><path d="M934.177982 999.596177h-71.734371V593.403469h71.734371c112.168779 0 203.096354 90.927575 203.096354 203.096354 0 112.168779-90.927575 203.096354-203.096354 203.096354zM225.751221 593.403469h71.734372v406.192708h-71.734372c-112.168779 0-203.096354-90.927575-203.096354-203.096354 0-112.168779 90.927575-203.096354 203.096354-203.096354z" fill="#FFE8C2" p-id="4134"></path><path d="M934.649204 692.713345a22.518938 22.518938 0 0 1-16.039646-6.633345 22.772673 22.772673 0 0 1-4.893452-24.675681 23.198584 23.198584 0 0 1 4.893452-7.358301 22.654867 22.654867 0 0 1 7.3583-4.893452 22.419257 22.419257 0 0 1 17.335505 0 22.872354 22.872354 0 0 1 7.367363 4.893452 22.509876 22.509876 0 0 1 6.180247 11.599292c0.289982 1.449912 0.453097 2.945133 0.453098 4.413168a22.772673 22.772673 0 0 1-10.085947 18.848849 22.881416 22.881416 0 0 1-12.56892 3.806018zM215.221239 692.713345a22.274265 22.274265 0 0 1-8.672283-1.72177 22.89954 22.89954 0 0 1-10.176567-8.355115 24.068531 24.068531 0 0 1-3.380106-8.137628 22.518938 22.518938 0 0 1-0.425911-4.440354c0-1.468035 0.135929-2.963257 0.425911-4.413168 0.299044-1.449912 0.752142-2.881699 1.313982-4.240991a22.265204 22.265204 0 0 1 4.893452-7.358301 22.89954 22.89954 0 0 1 11.599292-6.18931 22.310513 22.310513 0 0 1 13.076389 1.295858 22.283327 22.283327 0 0 1 7.358301 4.893452 22.355823 22.355823 0 0 1 4.893451 7.367363 22.319575 22.319575 0 0 1-2.084247 21.232141 23.144212 23.144212 0 0 1-6.252744 6.270867 22.85423 22.85423 0 0 1-12.56892 3.806018z" fill="#000000" p-id="4135"></path><path d="M612.832283 85.245735h-65.726301a17.833912 17.833912 0 0 0-17.842973 17.833911v126.568212c0 9.850336 7.983575 17.842973 17.833911 17.842974h65.735363a17.833912 17.833912 0 0 0 17.833912-17.842974V103.079646a17.833912 17.833912 0 0 0-17.833912-17.833911z" fill="#DF4141" p-id="4136"></path><path d="M529.263009 229.647858V103.079646c0-3.35292 0.942442-6.47023 2.546407-9.152566h-2.546407C476.395611 41.068743 422.504212 24.403823 357.312566 24.403823c-65.191646 0-101.403186 26.089345-101.403185 47.810832 0 21.730549 13.049204 28.971044 13.049203 68.082407s-17.389876 76.781876-17.389876 104.303009c0 27.521133 26.071221 65.182584 128.915257 55.042265 102.853097-10.131257 148.779044-57.942088 148.779044-57.942088h4.712212a17.743292 17.743292 0 0 1-4.712212-12.043328zM890.970619 140.288c0-39.102301 13.03108-46.342796 13.03108-68.082407 0-21.721487-36.21154-47.792708-101.385062-47.792708-58.449558 0-104.03115 13.375434-154.923044 54.262938-5.872142 4.712212-11.563044 9.786903-17.027398 15.269381h-2.537345c1.594903 2.673274 2.537345 5.799646 2.537345 9.134442v126.568212c0 4.648779-1.794265 8.871646-4.712213 12.043328h4.712213s5.926513 4.349735 17.027398 10.693097c25.708743 14.725664 59.899469 40.162549 131.733522 47.248991 102.853097 10.149381 128.933381-27.512071 128.933381-55.042265 0-27.521133-17.389876-65.191646-17.389877-104.303009z" fill="#FF5555" p-id="4137"></path><path d="M380.483965 299.633274c-57.978336 5.718088-91.543788-3.751646-109.812673-18.042336-66.315327 73.691752-106.686301 171.207363-106.686301 278.15646v43.234549a202.969487 202.969487 0 0 1 61.76623-9.578478h48.535788v-33.665133c0-117.497204 66.659681-219.715965 164.129982-270.861593a334.43115 334.43115 0 0 1-57.933026 10.756531zM889.24885 281.590938c-18.259823 14.281628-51.834336 23.760425-109.821735 18.033274-24.195398-2.383292-44.104496-6.850832-60.869097-12.288 99.083327 50.610973 167.084177 153.717805 167.084177 272.402124v33.665133h48.535787c21.540248 0 42.292106 3.361982 61.76623 9.578478v-43.243611c0-106.940035-40.370973-204.455646-106.6863-278.147398z" fill="#007F67" p-id="4138"></path><path d="M1018.59908 587.141664v-27.394266a437.728283 437.728283 0 0 0-99.09239-277.685239 66.849982 66.849982 0 0 0 11.508673-37.47115c0-15.305628-3.987257-31.481204-8.210124-48.599221-4.51285-18.277947-9.179752-37.19023-9.179752-55.703788 0-18.468248 3.216991-27.430513 6.606159-36.918372 3.008566-8.409487 6.42492-17.942655 6.42492-31.164035 0-20.026903-13.91915-38.975434-38.196106-52.006513C865.986832 8.137628 836.299894 1.758018 802.616637 1.758018c-67.719929 0-116.717876 17.172389-169.086867 59.247009-1.857699 1.486159-3.67915 3.02669-5.482478 4.576283a40.253168 40.253168 0 0 0-15.215009-2.990443h-65.726301c-5.292177 0-10.330619 1.051186-14.961274 2.899823C482.91115 21.54931 428.249487 1.758018 357.312566 1.758018c-33.692319 0-63.388319 6.379611-85.861947 18.450124-24.276956 13.03108-38.196106 31.988673-38.196106 52.015575 0 13.212319 3.416354 22.745487 6.433983 31.154973 3.39823 9.487858 6.615221 18.450124 6.615221 36.927434 0 18.513558-4.666903 37.425841-9.179752 55.703788-4.222867 17.118018-8.210124 33.284531-8.210124 48.590159 0 13.438867 4.014442 26.306832 11.508672 37.47115A437.737345 437.737345 0 0 0 141.321062 559.75646v27.403328C58.549239 620.643681 0 701.847788 0 796.499823c0 124.483965 101.267257 225.751221 225.751221 225.751221h71.734372a22.654867 22.654867 0 0 0 22.654867-22.654867V593.403469a22.654867 22.654867 0 0 0-22.654867-22.654867h-0.543717v-11.001204c0-104.810478 57.488991-200.314336 150.15646-249.801628 43.461097-12.641416 71.815929-30.819681 86.496283-42.174301 4.231929 1.504283 8.762903 2.365168 13.502301 2.365168h65.735363c5.419044 0 10.575292-1.087434 15.305629-3.02669 2.401416 1.486159 5.138124 3.126372 8.300743 4.938761 2.999504 1.72177 6.116814 3.588531 9.406301 5.554973 15.215009 9.116319 35.160354 21.041841 63.605805 30.538761 94.733593 48.952637 153.536566 145.226761 153.536566 251.595894v11.010266h-0.543716a22.654867 22.654867 0 0 0-22.654868 22.654867v406.192708a22.654867 22.654867 0 0 0 22.654868 22.654867h71.734371c124.483965 0 225.751221-101.276319 225.751222-225.751221 0-94.642973-58.549239-175.856142-141.330124-209.358159z m-410.596815-362.305699h-56.084389V107.900602h56.093451v116.935363z m-333.171539 752.105345H237.876106v-226.458053a22.654867 22.654867 0 0 0-45.309734 0v223.349805C108.87023 958.201204 45.309735 884.654442 45.309735 796.481699c0-83.723327 57.325876-154.288708 134.778336-174.569345l1.341168-0.344354c2.356106-0.598088 4.712212-1.141805 7.104566-1.640212 0.434973-0.090619 0.869947-0.199363 1.304921-0.280921 2.782018-0.570903 5.600283-1.078372 8.42761-1.513345l0.235611-0.027186c2.609841-0.398726 5.255929-0.724956 7.902018-1.005876 0.788389-0.090619 1.576779-0.154053 2.37423-0.23561 2.038938-0.190301 4.086938-0.344354 6.153062-0.46216 0.815575-0.054372 1.63115-0.108743 2.446725-0.144991a183.051327 183.051327 0 0 1 8.373239-0.208425H274.830726v360.882974z m-23.198584-417.193912v11.001204h-25.880921c-2.990442 0-5.971823 0.081558-8.935079 0.190301l-1.504284 0.063433c-2.845451 0.126867-5.681841 0.308106-8.500106 0.543717l-1.649274 0.154053c-2.863575 0.253735-5.718088 0.561841-8.554478 0.924319l-1.024 0.144991c-2.691398 0.362478-5.382796 0.770265-8.047009 1.232425-0.299044 0.04531-0.60715 0.081558-0.906195 0.135929v-14.399434A392.481982 392.481982 0 0 1 275.483186 310.761345a116.183221 116.183221 0 0 0 8.309805 3.39823c3.642903 1.341168 7.44892 2.546407 11.427115 3.624779l0.706832 0.181239c1.359292 0.362478 2.718584 0.706832 4.114124 1.024l0.335292 0.072495c4.340673 1.005876 8.871646 1.857699 13.574796 2.546408l0.598089 0.090619c4.576283 0.661522 9.324743 1.178053 14.236319 1.540531l1.114619 0.090619c1.540531 0.108743 3.090124 0.208425 4.666903 0.289983l1.223362 0.04531c2.519221 0.117805 5.07469 0.199363 7.684531 0.244672l3.216992 0.04531 1.540531 0.018124 1.667398-0.018124h1.63115a327.317522 327.317522 0 0 0-99.898902 235.791858z m164.592141-288.668318a246.883681 246.883681 0 0 1-7.911079 1.63115c-1.187115 0.235611-2.392354 0.462159-3.597593 0.679646l-3.271363 0.579965-3.035752 0.507469c-1.341168 0.217487-2.691398 0.41685-4.032567 0.60715-0.842761 0.126867-1.667398 0.262796-2.519221 0.380602-1.594903 0.217487-3.198867 0.425912-4.802832 0.625274l-1.930195 0.244673c-2.147681 0.253735-4.313487 0.489345-6.479292 0.706832l-0.380601 0.045309a343.982442 343.982442 0 0 1-9.460673 0.797452l-1.30492 0.090619c-48.028319 3.262301-70.773805-5.854018-80.886938-12.777345l-0.063434-0.054372a39.32885 39.32885 0 0 1-3.914761-3.081062c-6.950513-6.288991-8.409487-12.976708-8.409487-17.480495 0-9.795965 3.35292-23.370761 6.88708-37.743009 4.920637-19.936283 10.493735-42.536779 10.493734-66.550938 0-26.34308-5.346549-41.28623-9.261309-52.196814-2.501097-7.004885-3.733522-10.647788-3.76977-15.622797 1.594903-5.799646 23.706053-25.418761 78.748318-25.418761 62.808354 0 106.731611 16.465558 149.286514 56.45593v11.418053c-24.29508-9.805027-55.323186-14.499115-85.272921-14.499115a22.654867 22.654867 0 0 0 0 45.309734c48.254867 0 77.624637 13.556673 84.357664 20.624991-6.742088 7.068319-36.102796 20.624991-84.366726 20.624991a22.654867 22.654867 0 0 0 0 45.309735c29.958796 0 60.986903-4.685027 85.281983-14.480991v11.834902c0 0.561841 0.018124 1.132743 0.036247 1.694584-12.016142 9.406301-41.503717 28.880425-90.420106 39.736638z m242.73331-38.35016c-2.084248-1.187115-3.969133-2.310796-5.636531-3.316672v-11.599292c24.29508 9.795965 55.323186 14.490053 85.27292 14.490053a22.654867 22.654867 0 0 0 0-45.309735c-48.254867 0-77.624637-13.556673-84.357663-20.624991 6.733027-7.068319 36.102796-20.624991 84.366725-20.624991a22.654867 22.654867 0 0 0 0-45.309734c-29.958796 0-60.986903 4.694088-85.281982 14.490053v-11.282124c2.772956-2.510159 5.627469-4.956885 8.56354-7.303929 44.131681-35.459398 83.587398-49.269805 140.732035-49.269806 55.024142 0 77.135292 19.600991 78.730195 25.400637-0.04531 4.984071-1.268673 8.636035-3.76977 15.631859-3.905699 10.910584-9.26131 25.853735-9.26131 52.196814 0 24.014159 5.582159 46.605593 10.493735 66.550938 3.543221 14.363186 6.88708 27.937982 6.887079 37.743009 0 4.494726-1.449912 11.173381-8.400424 17.471433a35.124106 35.124106 0 0 1-3.86039 3.035753l-0.126867 0.090619c-10.122195 6.941451-32.885805 16.039646-80.932248 12.786407l-0.679646-0.045309a329.274903 329.274903 0 0 1-24.458195-2.600779l-0.788389-0.108744c-2.265487-0.335292-4.485664-0.69777-6.696779-1.078371l-0.815575-0.13593a244.890053 244.890053 0 0 1-33.384212-8.219185c-0.199363-0.063434-0.389664-0.099681-0.579965-0.163115-24.104779-7.883894-41.077805-18.042336-55.848779-26.886797-3.561345-2.129558-6.932389-4.150372-10.167504-5.999009z m199.507823 153.255646a330.389522 330.389522 0 0 0-50.203186-62.038088h1.830513l1.585841 0.027186 1.250549-0.018124a255.773451 255.773451 0 0 0 12.922336-0.362478 214.967504 214.967504 0 0 0 6.461168-0.444035 203.667257 203.667257 0 0 0 8.500106-0.842762c1.168991-0.126867 2.310796-0.289982 3.452602-0.453097a192.394195 192.394195 0 0 0 5.917451-0.906195c0.661522-0.108743 1.313982-0.235611 1.975505-0.362477 2.120496-0.380602 4.195681-0.806513 6.234619-1.259611l1.839576-0.407788c1.141805-0.271858 2.283611-0.561841 3.407292-0.851823l1.685522-0.453097c2.319858-0.634336 4.585345-1.313982 6.79646-2.048l0.616212-0.199363a124.493027 124.493027 0 0 0 7.847646-2.936071c0.262796-0.099681 0.516531-0.217487 0.770266-0.32623 1.042124-0.444035 2.084248-0.879009 3.090124-1.341168a392.47292 392.47292 0 0 1 88.852389 248.986053v14.390372l-0.906195-0.135929a224.373805 224.373805 0 0 0-8.047008-1.232425l-1.024-0.144991c-2.836389-0.362478-5.690903-0.661522-8.554478-0.924319l-1.649275-0.154053a224.047575 224.047575 0 0 0-8.500106-0.543717l-1.504283-0.063433a229.013522 229.013522 0 0 0-8.93508-0.181239h-25.88092v-11.010266a327.045664 327.045664 0 0 0-49.840708-173.762832z m98.829593 589.425275v-224.917522a22.654867 22.654867 0 0 0-45.309735 0v226.448991h-26.886796V616.058336H934.177982c2.809204 0 5.600283 0.090619 8.373239 0.208425l2.446726 0.144991c2.057062 0.117805 4.114124 0.271858 6.153062 0.471221l2.37423 0.226549c2.65515 0.28092 5.292177 0.60715 7.902018 1.005876l0.23561 0.036248c2.827327 0.425912 5.636531 0.942442 8.427611 1.504283l1.30492 0.280921c2.383292 0.507469 4.757522 1.051186 7.104567 1.649274l1.341168 0.335292C1057.293593 642.202053 1114.619469 712.776496 1114.619469 796.499823c0 91.661593-68.716743 167.51915-157.32446 178.910018z" fill="#000000" p-id="4139"></path></svg>